<svg id="Capa_1" enable-background="new 0 0 512 512" height="512" viewBox="0 0 512 512" width="512" xmlns="http://www.w3.org/2000/svg"><g><path d="m507.38 207.39-36.81 44.74c-117.17 142.44-328.71 160.29-468.1 39.52-.82-5.8-1.43-11.67-1.84-17.59-.42-5.96-.63-11.99-.63-18.06 0-46.22 12.25-89.57 33.68-127 44.12-77.07 127.16-129 222.32-129s178.2 51.93 222.32 129c12.98 22.67 22.59 47.52 28.15 73.86.32 1.51.62 3.02.91 4.53z" fill="#92eaff"/><g><path d="m507.38 207.39-36.81 44.74c-117.17 142.44-328.71 160.29-468.1 39.52-1.63-11.65-2.47-23.55-2.47-35.65 0-46.22 12.25-89.57 33.68-127 24.29 42.44 60.39 77.25 103.81 99.96 17.34 9.09 35.86 16.24 55.26 21.16 20.23 5.15 41.42 7.88 63.25 7.88 95.16 0 178.2-51.93 222.32-129 13.72 23.97 23.68 50.36 29.06 78.39z" fill="#63dbfa"/></g><g><path d="m441.88 286.58c-108.44 124.68-294.73 146.5-429.27 48.97-4.62-14.13-8.03-28.8-10.14-43.9 26.55-16.02 58.45-35.23 70.43-42.33 14.79-8.77 30.1-17.72 47.13-20.11 5.91-.83 11.72-.86 17.46-.25 19.15 2.02 37.4 11.13 55.26 21.16 8.99 5.05 17.89 10.34 26.75 15.07 45.81 24.47 98.65 35.57 150.44 31.61 24.15-1.85 47.95-6.88 71.94-10.22z" fill="#ed784a"/><g><g><path d="m512 256c0 5.3-.16 10.57-.48 15.79-.47 7.79-1.3 15.48-2.45 23.07-1.19 7.81-2.74 15.52-4.62 23.09-1.64 6.59-3.54 13.09-5.68 19.47-.4 1.21-.82 2.41-1.24 3.6-2.77 7.88-5.92 15.58-9.42 23.08h-285.52l23.07-23.08 46.16-46.16 161.52-161.51 23.07 23.07 50.97 50.97c1.16 6.02 2.11 12.11 2.84 18.26.9 7.59 1.46 15.29 1.67 23.07.05 1.58.08 3.17.1 4.76.01.84.01 1.68.01 2.52z" fill="#ffc0a4"/><path d="m512 256c0 5.3-.16 10.57-.48 15.79-.47 7.79-1.3 15.48-2.45 23.07-1.19 7.81-2.74 15.52-4.62 23.09-1.64 6.59-3.54 13.09-5.68 19.47-.4 1.21-.82 2.41-1.24 3.6-2.77 7.88-5.92 15.58-9.42 23.08h-111.97l5.72-23.08 5.73-23.07 5.7-23.09 5.72-23.07 5.73-23.07 5.72-23.07 5.73-23.07 5.7-23.09 5.72-23.07 5.73-23.07 23.07 23.07 50.97 50.97c1.16 6.02 2.11 12.11 2.84 18.26.9 7.59 1.46 15.29 1.67 23.07.05 1.58.08 3.17.1 4.76.01.84.01 1.68.01 2.52z" fill="#ffa87a"/></g><g><g fill="#ffa87a"><path d="m248.729 317.953h138.858l-5.724 23.071h-156.204z"/><path d="m294.891 271.792h104.123l-5.723 23.071h-121.471z"/><path d="m433.337 133.346-5.724 23.071h-17.347z"/><path d="m341.033 225.65h69.429l-5.724 23.071h-86.776z"/><path d="m387.195 179.488h34.694l-5.704 23.091h-52.081z"/></g><path d="m456.408 156.417h-28.795l5.724-23.071z" fill="#f99568"/><path d="m502.569 202.579h-86.384l5.704-23.091h57.59z" fill="#f99568"/><path d="m511.89 248.72h-107.15l5.72-23.07h99.76c.9 7.59 1.46 15.29 1.67 23.07z" fill="#f99568"/><path d="m511.52 271.79c-.47 7.79-1.3 15.48-2.45 23.07h-115.78l5.72-23.07z" fill="#f99568"/><path d="m504.45 317.95c-1.64 6.59-3.54 13.09-5.68 19.47-.4 1.21-.82 2.41-1.24 3.6h-115.67l5.73-23.07z" fill="#f99568"/></g></g><g><g><path d="m429.615 346.954h-283.908l14.194-14.194 14.193-14.194 14.206-14.205 99.367-99.367 14.194 14.193 56.786 56.787 14.182 14.193 14.193 14.194 14.206 14.205 14.194 14.194z" fill="#ffc0a4"/><path d="m429.615 346.954h-177.136l3.521-14.194 3.521-14.194 3.509-14.205 3.522-14.194 3.521-14.193 3.521-14.194 3.522-14.194 3.509-14.205 3.521-14.194 3.521-14.193 14.194 14.193 56.786 56.787 14.182 14.193 14.193 14.194 14.206 14.205 14.194 14.194z" fill="#ffa87a"/></g><g><g fill="#ffa87a"><path d="m174.094 318.566h85.427l-3.521 14.194h-96.099z"/><path d="m202.494 290.167h64.058l-3.522 14.194h-74.73z"/><path d="m287.667 204.994-3.521 14.193h-10.672z"/><path d="m230.881 261.78h42.713l-3.521 14.194h-53.386z"/><path d="m259.28 233.381h21.345l-3.509 14.205h-32.042z"/></g><path d="m301.861 219.187h-17.715l3.521-14.193z" fill="#f99568"/><path d="m330.26 247.586h-53.144l3.509-14.205h35.43z" fill="#f99568"/><path d="m358.647 275.974h-88.574l3.521-14.194h70.86z" fill="#f99568"/><path d="m387.022 304.361h-123.992l3.522-14.194h106.277z" fill="#f99568"/><path d="m415.422 332.76h-159.422l3.521-14.194h141.707z" fill="#f99568"/></g></g><path d="m498.77 337.42c-5.75 17.16-13.27 33.51-22.35 48.83-44.57 75.28-126.6 125.75-220.42 125.75-93.43 0-175.17-50.05-219.86-124.8-9.66-16.15-17.59-33.45-23.53-51.65 52.17-14.67 109.25-15.4 164.27-11.11 26.44 2.06 52.79 5.2 79.12 8.32 40.45 4.78 80.88 9.51 121.65 10.18 40.2.67 82.78.26 121.12-5.52z" fill="#f99568"/><path d="m498.77 337.42c-11.45 34.16-29.91 65.11-53.66 91.13-46.66 51.1-113.74 83.22-188.32 83.45h-.79v-179.24c40.45 4.78 80.88 9.51 121.65 10.18 40.2.67 82.78.26 121.12-5.52z" fill="#ed784a"/><path d="m440.6 433.35c-46.57 48.48-112.06 78.65-184.6 78.65-87.59 0-164.91-43.99-211.05-111.09 69.76-5.07 141.5 3.11 211.05 12.61.75.11 1.49.21 2.24.31 60.29 8.26 121.38 17.4 182.36 19.52z" fill="#ed784a"/><path d="m440.6 433.35c-46.57 48.48-112.06 78.65-184.6 78.65v-98.48c.75.11 1.49.21 2.24.31 60.29 8.26 121.38 17.4 182.36 19.52z" fill="#d85e39"/><g><path d="m167.906 159.92c0-.075.005-.148.005-.223 0-13.666-11.078-24.744-24.744-24.744-3.247 0-6.344.632-9.185 1.768-5.487-9.83-15.986-16.481-28.043-16.481-15.658 0-28.69 11.213-31.523 26.046-.844-.121-1.707-.187-2.584-.187-8.513 0-15.646 5.893-17.552 13.821z" fill="#fff"/><path d="m143.763 159.92c0-.043.003-.085.003-.128 0-7.858-6.37-14.228-14.229-14.228-1.867 0-3.648.363-5.281 1.017-3.155-5.653-9.192-9.477-16.126-9.477-9.004 0-16.497 6.448-18.126 14.977-.486-.07-.981-.108-1.486-.108-4.895 0-8.997 3.389-10.093 7.948h65.338z" fill="#dff7fd"/></g><g><path d="m261.512 77.101c0-.071.005-.14.005-.211 0-12.917-10.472-23.389-23.389-23.389-3.069 0-5.997.597-8.682 1.672-5.187-9.292-15.11-15.579-26.507-15.579-14.8 0-27.119 10.599-29.796 24.619-.798-.114-1.613-.177-2.443-.177-8.047 0-14.789 5.57-16.591 13.064h107.403z" fill="#fff"/><path d="m238.691 77.101c0-.041.003-.08.003-.121 0-7.428-6.021-13.449-13.449-13.449-1.765 0-3.448.343-4.992.961-2.982-5.343-8.689-8.958-15.242-8.958-8.51 0-15.594 6.095-17.133 14.157-.459-.066-.928-.102-1.405-.102-4.627 0-8.504 3.203-9.54 7.512z" fill="#dff7fd"/></g><g><path d="m373.839 141.253c0-.066.005-.132.005-.198 0-12.143-9.844-21.987-21.987-21.987-2.885 0-5.637.561-8.161 1.571-4.876-8.735-14.205-14.645-24.918-14.645-13.913 0-25.493 9.964-28.01 23.143-.75-.107-1.517-.166-2.296-.166-7.564 0-13.902 5.236-15.596 12.281h100.963z" fill="#fff"/><path d="m352.386 141.253c0-.038.003-.076.003-.114 0-6.982-5.66-12.643-12.643-12.643-1.659 0-3.242.323-4.693.904-2.803-5.023-8.168-8.421-14.328-8.421-8 0-14.659 5.729-16.106 13.308-.431-.062-.872-.096-1.32-.096-4.35 0-7.994 3.011-8.968 7.062z" fill="#dff7fd"/></g></g></g></svg>